<?xml version="1.0" encoding="utf-8"?>
<!-- Generator: Adobe Illustrator 18.0.0, SVG Export Plug-In . SVG Version: 6.00 Build 0)  -->
<!DOCTYPE svg PUBLIC "-//W3C//DTD SVG 1.1//EN" "http://www.w3.org/Graphics/SVG/1.1/DTD/svg11.dtd">
<svg version="1.1" xmlns="http://www.w3.org/2000/svg" xmlns:xlink="http://www.w3.org/1999/xlink" x="0px" y="0px"
	 viewBox="0 0 600 300" enable-background="new 0 0 600 300" xml:space="preserve">
<g id="Layer_1">
</g>
<g id="Layer_2">
	<g>
		<path fill="#FFFFFF" d="M395.8,134c-4.6,0-8.2,1.8-10.9,5.4c-2.7,3.6-4,8.6-4,15.1c0,13.8,5,20.7,14.9,20.7
			c4.6,0,8.2-1.8,10.9-5.4c2.7-3.6,4-8.7,4-15.4C410.6,140.8,405.7,134,395.8,134z"/>
		<path fill="#FFFFFF" d="M257.2,134.3c-8.4,0-13.6,4.6-15.6,13.8h30.8C271.5,138.9,266.4,134.3,257.2,134.3z"/>
		<path fill="#FFFFFF" d="M0.2-0.4v300.1h599.6V-0.4H0.2z M444,98.6h15.2v24c0,7.8-1.5,21.5-4.6,41h-6.1c-3-19.5-4.6-33.2-4.6-41
			V98.6z M213.2,186h-15.1v-38.7H164V186h-15.2v-85.8H164v33.6h34.2v-33.6h15.1V186z M286,159.1h-44.8c0.3,5,2,8.9,5.2,11.7
			c3.2,2.8,7.4,4.2,12.8,4.2c6.7,0,11.8-1.7,15.2-5.2l5.7,11.2c-5.2,4.2-12.9,6.3-23.1,6.3c-9.6,0-17.1-2.8-22.7-8.4
			c-5.6-5.6-8.3-13.4-8.3-23.5c0-9.9,3.1-17.9,9.2-24c6.1-6.1,13.4-9.2,22-9.2c9.1,0,16.4,2.7,21.9,8.1c5.5,5.4,8.3,12.3,8.3,20.7
			C287.2,152.8,286.8,155.5,286,159.1z M311.4,187.2c-6.6,0-10-4.6-10-13.8V99.9l14.6-3.5v70.5c0,7.7,2.3,12.3,6.9,13.8
			C320.7,185,316.9,187.2,311.4,187.2z M346.8,187.2c-6.6,0-10-4.6-10-13.8V99.9l14.6-3.5v70.5c0,7.7,2.3,12.3,6.9,13.8
			C356.1,185,352.2,187.2,346.8,187.2z M417.8,178.3c-5.4,5.9-12.7,8.8-22.1,8.8c-9.5,0-16.9-3-22.2-8.9c-5.3-6-7.9-13.9-7.9-23.8
			c0-9.6,2.8-17.4,8.3-23.4c5.5-6,12.8-9,21.9-9c9.5,0,16.9,2.9,22.2,8.7c5.3,5.8,7.9,13.7,7.9,23.7
			C425.9,164.5,423.2,172.4,417.8,178.3z M458.8,184.4c-1.9,1.9-4.1,2.8-6.8,2.8s-4.9-0.9-6.8-2.8s-2.8-4.1-2.8-6.8
			c0-2.7,0.9-4.9,2.8-6.8s4.1-2.8,6.8-2.8s4.9,0.9,6.8,2.8s2.8,4.1,2.8,6.8C461.6,180.2,460.7,182.5,458.8,184.4z"/>
	</g>
</g>
</svg>
